<svg id="_x33_0" enable-background="new 0 0 64 64" height="150px" viewBox="0 0 64 64" width="150px" xmlns="http://www.w3.org/2000/svg"><g><g><g><path d="m40 10-.89.89-2.48-.31c-2.63-.33-5.04-1.6-6.79-3.55-.23-.25-.44-.5-.64-.77l-1.05-1.39-2.15-2.87h6.88c2.59 0 5.01 1.25 6.51 3.35l2.21 3.09c-.11.09-.21.17-.31.27z" fill="#b4dd7f"/></g><g><path d="m36.13 13.43c-2.06 1.03-4.33 1.57-6.63 1.57-1.63 0-3.25-.27-4.79-.8-.63-.21-1.24-.47-1.84-.77l-1.95-.97-2.92-1.46 4.42-2.21.98-.49c1.71-.86 3.59-1.3 5.5-1.3.31 0 .62.01.93.04l.01-.01c1.75 1.95 4.16 3.22 6.79 3.55l2.48.31-.11.11-2 2z" fill="#b4dd7f"/></g><g><path d="m29.2 6.26c.2.27.41.52.64.77l-.01.01c-.31-.03-.62-.04-.93-.04-1.91 0-3.79.44-5.5 1.3l-.98.49c-.44-.43-.83-.91-1.17-1.42l-2.25-3.37h3.17c2.03 0 4.05.29 5.98.87z" fill="#b4dd7f"/></g><g><path d="m29.5 15c2.3 0 4.57-.54 6.63-1.57l.87-.43-1 1-4.18 4.18c-1.28.39-2.29 1.42-2.66 2.71-1.48.72-3.13 1.11-4.82 1.11h-3.34-4l1.56-2.08 1.64-2.18c1.18-1.57 2.74-2.78 4.51-3.53v-.01c1.54.53 3.16.8 4.79.8z" fill="#b4dd7f"/></g><g><path d="m29 22c0 1.88 1.3 3.46 3.06 3.89l-.67 1.33c-.26.51-.39 1.08-.39 1.66 0 .24.02.49.07.72-1.3 1.95-3.03 3.57-5.05 4.72l-.01.01c-1.08.61-2.25 1.1-3.48 1.43l-4.53 1.24.19-.69 1.27-4.65c.27-.99.64-1.95 1.11-2.85 1.22-2.41 3.08-4.47 5.41-5.92l3.18-2c-.11.35-.16.73-.16 1.11z" fill="#b4dd7f"/></g><g><path d="m21 22h3.34c1.69 0 3.34-.39 4.82-1.11l-3.18 2c-2.33 1.45-4.19 3.51-5.41 5.92l-.01-.01c-2.1 1.28-4.5 2.04-6.97 2.17-.28.02-.57.03-.85.03h-3.74l.46-2.28c.71-3.58 2.78-6.68 5.69-8.72h2.02c.46 0 .93-.03 1.39-.08l-1.56 2.08z" fill="#b4dd7f"/></g><g><path d="m22.87 13.43c.6.3 1.21.56 1.84.77v.01c-1.77.75-3.33 1.96-4.51 3.53l-1.64 2.18c-.46.05-.93.08-1.39.08h-2.02-4.15l1.89-2.64c1.9-2.66 4.8-4.43 8.03-4.9z" fill="#b4dd7f"/></g><g><path d="m19.46 31.66-1.27 4.65c-1.29.45-2.65.69-4.02.69h-1.12-5.05l1.89-2.64c.99-1.39 2.26-2.54 3.7-3.38v-.01c2.47-.13 4.87-.89 6.97-2.17l.01.01c-.47.9-.84 1.86-1.11 2.85z" fill="#b4dd7f"/></g><g><path d="m22.53 35.76c1.23-.33 2.4-.82 3.48-1.43l-2.26 1.51.04.06c-.6.39-1.16.81-1.68 1.28-2.51 2.19-4.25 5.2-4.87 8.57-2.17 1.45-4.76 2.25-7.45 2.25h-2.79l.51-2.57c.7-3.46 2.71-6.47 5.54-8.43h1.12c1.37 0 2.73-.24 4.02-.69l-.19.69z" fill="#b4dd7f"/></g><g><path d="m34.61 27.22c.26.51.39 1.08.39 1.66 0 .73-.22 1.45-.62 2.06l-1.38 2.06-1.38-2.06c-.27-.41-.45-.86-.55-1.34-.05-.23-.07-.48-.07-.72 0-.58.13-1.15.39-1.66l.67-1.33c.3.07.61.11.94.11s.64-.04.94-.11z" fill="#fcd770"/></g><g><path d="m37 22c0 1.88-1.3 3.46-3.06 3.89-.3.07-.61.11-.94.11s-.64-.04-.94-.11c-1.76-.43-3.06-2.01-3.06-3.89 0-.38.05-.76.16-1.11.37-1.29 1.38-2.32 2.66-2.71.38-.12.77-.18 1.18-.18 1.87 0 3.45 1.29 3.88 3.03.08.31.12.64.12.97z" fill="#cf9e76"/></g><g><path d="m45.29 9.29-.58-.58c-.46-.46-1.07-.71-1.71-.71-.51 0-.99.16-1.4.44-.11.09-.21.17-.31.27l-1.29 1.29-.89.89-.11.11-2 2-1 1-4.18 4.18c.38-.12.77-.18 1.18-.18 1.87 0 3.45 1.29 3.88 3.03l.12-.03 1-1 4-4 3.29-3.29c.01-.01.03-.03.04-.04.2-.21.37-.46.48-.73.12-.29.19-.61.19-.94 0-.64-.25-1.25-.71-1.71z" fill="#cf9e76"/></g><g><path d="m51 52v10h-5l.45-7.58c.05-.86.13-1.71.25-2.56.31-2.51.89-4.98 1.72-7.36.08-.23.16-.45.24-.67.85-2.31 1.92-4.54 3.23-6.65 3.16 2.77 5.11 6.82 5.11 11.27v3.55z" fill="#ff826e"/></g><g><path d="m37 58v-4-3l1.08-2.97 4.09 1.82 4.52 2.01h.01c-.12.85-.2 1.7-.25 2.56l-.45 7.58h-9z" fill="#cf9e76"/></g><g><path d="m37 58v4h-9l-.45-7.58c-.05-.86-.13-1.71-.25-2.56h.01l4.52-2.01 4.09-1.82 1.08 2.97v3z" fill="#cf9e76"/></g><g><path d="m23 52h-6v-3.55c0-.92.08-1.82.24-2.7.62-3.37 2.36-6.38 4.87-8.57 1.31 2.11 2.38 4.34 3.23 6.65.08.22.16.44.24.67.83 2.38 1.41 4.85 1.72 7.36.12.85.2 1.7.25 2.56l.45 7.58h-5z" fill="#ff826e"/></g><g><path d="m29.48 33.66 3.52 6.34-4 2-3.53-7.05c1.18-.57 2.44-.99 3.77-1.24z" fill="#cf9e76"/></g><g><path d="m25.47 34.95 3.53 7.05-3.65 1.83h-.01c-.85-2.31-1.92-4.54-3.23-6.65.52-.47 1.08-.89 1.68-1.28.53-.35 1.1-.67 1.68-.95z" fill="#cf9e76"/></g><g><path d="m25.59 44.5 6.24 5.35-4.52 2.01h-.01c-.31-2.51-.89-4.98-1.72-7.36z" fill="#cf9e76"/></g><g><path d="m33.93 42.57 1.99 5.46-4.09 1.82 1.17-9.85c0 .98.35 1.88.93 2.57z" fill="#cf9e76"/></g><g><path d="m42.17 49.85 6.24-5.35h.01c-.83 2.38-1.41 4.85-1.72 7.36h-.01z" fill="#cf9e76"/></g><g><path d="m41 40 1.17 9.85-4.09-1.82 1.99-5.46c.58-.69.93-1.59.93-2.57z" fill="#cf9e76"/></g><g><path d="m48.53 34.95c1.23.59 2.36 1.35 3.36 2.23-1.31 2.11-2.38 4.34-3.23 6.65h-.01l-3.65-1.83z" fill="#cf9e76"/></g><g><path d="m48.53 34.95-3.53 7.05-4-2 3.52-6.34.24.05c1.33.25 2.59.67 3.77 1.24z" fill="#cf9e76"/></g><g><path d="m33 40-1.17 9.85-6.24-5.35h-.01c-.08-.23-.16-.45-.24-.67h.01l3.65-1.83z" fill="#b27946"/></g><g><path d="m48.65 43.83h.01c-.08.22-.16.44-.24.67h-.01l-6.24 5.35-1.17-9.85 4 2z" fill="#b27946"/></g><g><circle cx="37" cy="40" fill="#fcd770" r="4"/></g><g><path d="m44.52 33.66-3.52 6.34c0-2.21-1.79-4-4-4 1.79 0 3.38-1.15 3.95-2.85l.05-.15z" fill="#e6e9ed"/></g><g><path d="m33 40-3.52-6.34 3.52-.66.05.15c.57 1.7 2.16 2.85 3.95 2.85-2.21 0-4 1.79-4 4z" fill="#e6e9ed"/></g><g><path d="m40.07 42.57-1.99 5.46-1.08 2.97-1.08-2.97-1.99-5.46c.74.88 1.84 1.43 3.07 1.43s2.33-.55 3.07-1.43z" fill="#e6e9ed"/></g><g><path d="m17 52h6v10h-6z" fill="#f0d0b4"/></g><g><path d="m51 52h6v10h-6z" fill="#f0d0b4"/></g><g><path d="m48 18 2 4-2 1v2c0 .34-.03.68-.1 1-.46 2.28-2.48 4-4.9 4h-2v3l-.05.15c-.57 1.7-2.16 2.85-3.95 2.85s-3.38-1.15-3.95-2.85l-.05-.15 1.38-2.06c.4-.61.62-1.33.62-2.06 0-.58-.13-1.15-.39-1.66l-.67-1.33c1.76-.43 3.06-2.01 3.06-3.89 0-.33-.04-.66-.12-.97l.12-.03 1-1 4-4 3.29-3.29c.01-.01.03-.03.04-.04z" fill="#f0d0b4"/></g></g><g><circle cx="33" cy="22" r="1"/><path d="m44.949 32.723-2.949-.553v-1.17h1c3.309 0 6-2.691 6-6v-1.382l2.342-1.171-4.843-9.686c.32-.527.501-1.128.501-1.761 0-.913-.355-1.77-1-2.414l-.586-.586c-.907-.905-2.28-1.161-3.467-.794l-1.741-2.436c-1.685-2.361-4.422-3.77-7.323-3.77h-8.883l1.724 2.299c-1.174-.192-2.361-.299-3.555-.299h-5.038l3.283 4.923c.126.19.268.368.406.548l-5.056 2.529 2.336 1.168c-2.402.903-4.521 2.501-6.027 4.611l-3.016 4.221h3.382c-2.009 2.057-3.389 4.652-3.963 7.524l-.696 3.476h2.841c-.563.545-1.087 1.132-1.549 1.779l-3.015 4.221h4.273c-1.923 1.979-3.243 4.472-3.795 7.232l-.755 3.768h4.011c2.179 0 4.305-.489 6.248-1.421-.016.289-.039.577-.039.87v14.551h42v-14.551c0-7.695-5.489-14.308-13.051-15.726zm11.051 15.726v2.551h-4v-4h-2v14h-2.94l.384-6.524c.324-5.507 1.945-10.9 4.673-15.69 2.418 2.533 3.883 5.952 3.883 9.663zm-34-1.449v4h-4v-2.551c0-3.711 1.465-7.129 3.882-9.663 2.729 4.79 4.349 10.183 4.673 15.69l.385 6.524h-2.94v-14zm-1.579-15.075c.929-3.408 3.09-6.315 6.089-8.19l1.566-.985c.078.509.23.989.449 1.435l-5.283 6.164 1.518 1.302 5.021-5.858c.277.235.577.438.9.609l-.183.366c-.326.651-.498 1.379-.498 2.108 0 .152.019.302.033.452-1.873 2.67-4.613 4.612-7.767 5.472l-2.841.775zm-1.421-10.925 1.998-2.664c.997-1.329 2.32-2.377 3.828-3.071.66.204 1.33.363 2.01.48l-3.417 2.44 1.162 1.628 5.377-3.841c1.018-.03 2.032-.147 3.027-.372l-1.731 1.731c-1.311.492-2.362 1.509-2.886 2.805-1.264.558-2.646.864-4.029.864zm14.714 6.664c.187.374.286.793.286 1.212 0 .537-.157 1.058-.455 1.504l-.545.818-.545-.817c-.298-.447-.455-.968-.455-1.505 0-.419.099-.838.286-1.212l.35-.7c.122.008.239.036.364.036s.241-.028.364-.037zm7.909 6.47 1.352.254-1.699 3.058c-.331-.552-.761-1.031-1.272-1.418.676-.484 1.238-1.127 1.619-1.894zm4.281 16.285-1.882-.836 2.479-2.125c-.242.978-.432 1.967-.597 2.961zm-15.065-18.858.49.735-1.395.262c.315-.318.616-.652.905-.997zm5.161 5.623v1.816h-1.816c.302-.847.969-1.514 1.816-1.816zm11.206 7.037-4.263 3.654-.731-6.151zm-15.418-2.497-.731 6.151-4.263-3.654zm5.212 3.276c.406 0 .795-.062 1.174-.154l-1.174 3.228-1.174-3.228c.379.092.768.154 1.174.154zm1-2.184v-1.816h1.816c-.302.847-.969 1.514-1.816 1.816zm-2 0c-.847-.302-1.514-.969-1.816-1.816h1.816zm-6.553-2.158-2.608-5.216c.681-.27 1.392-.484 2.126-.647l2.654 4.777zm-4.41-4.347 2.621 5.241-1.79.895c-.695-1.734-1.522-3.414-2.467-5.03.518-.403 1.062-.776 1.636-1.106zm2.462 11.147 2.479 2.125-1.882.836c-.165-.994-.355-1.983-.597-2.961zm5.998-3.166 1.166 3.208-1.634.726zm7.006 0 .467 3.934-1.633-.726zm7.629-1.844-1.79-.895 2.621-5.241c.575.33 1.118.702 1.636 1.106-.945 1.616-1.772 3.296-2.467 5.03zm-3.579-1.79-2.171-1.086 2.654-4.777c.733.163 1.444.376 2.126.647zm-4.737-1.658h-1.816v-1.816c.847.302 1.514.969 1.816 1.816zm-7.091-1.554-1.699-3.058 1.359-.255c.38.766.932 1.416 1.607 1.9-.509.386-.937.863-1.267 1.413zm.275-12.446c-1.654 0-3-1.346-3-3s1.346-3 3-3 3 1.346 3 3-1.346 3-3 3zm1.24-7.826 1.323-1.323.834 2.503c-.601-.561-1.338-.968-2.157-1.18zm4.197.975-.856-2.568 2.568.856zm4-4-.856-2.568 2.568.856zm-2.874-2.298.856 2.568-2.568-.856zm-11.011 42.508c-.037-.628-.101-1.254-.169-1.879l6.966-3.096.651 1.792v1.824h-2v2h2v2h-2v2h2v2h-7.057zm9.448 4.641h2v-2h-2v-2h2v-2h-2v-1.824l.652-1.792 6.966 3.096c-.068.625-.133 1.251-.169 1.879l-.392 6.641h-7.057zm9-36.618v2.618h-.172c-1.557 0-3.021-.606-4.121-1.707l-1.414 1.414c1.389 1.39 3.21 2.183 5.161 2.275-.692 1.199-1.972 2.018-3.454 2.018h-3v3.838c-.432 1.293-1.637 2.162-3 2.162-1.258 0-2.374-.746-2.879-1.879l1.088-1.632c.518-.776.791-1.68.791-2.613 0-.729-.172-1.457-.497-2.107l-.183-.367c1.585-.839 2.68-2.487 2.68-4.402 0-.182-.035-.355-.054-.532l7.113-7.113 1.906 3.813c-.082.468-.473.832-.965.832-.552 0-1-.449-1-1h-2c0 1.654 1.346 3 3 3 .768 0 1.463-.299 1.994-.775l.664 1.328zm-3-12.968.586.586c.165.165.266.368.332.585l-3.067-1.022.149-.148c.535-.536 1.465-.535 2-.001zm-11.117-6.414c2.256 0 4.386 1.096 5.696 2.932l1.698 2.377-.385.385-6.311-4.508-1.162 1.628 5.482 3.916-1.143-.143c-2.678-.335-5.142-1.765-6.76-3.923l-1.998-2.664zm-10.805 3.814-1.209-1.814h1.3c1.825 0 3.636.257 5.392.748l.231.307c-1.675.143-3.331.596-4.835 1.348l-.312.156c-.202-.238-.394-.485-.567-.745zm1.774 2.378c1.713-.857 3.66-1.246 5.562-1.162.747.765 1.587 1.431 2.504 1.97h-5.918v2h10.586l-.178.178-.725.362c-3.82 1.91-8.547 1.91-12.367 0l-3.08-1.54zm-10.153 8.749c1.676-2.345 4.245-3.943 7.079-4.434l1.643.821c-1.154.759-2.188 1.695-3.022 2.807l-1.361 1.814c-.291.024-.583.051-.871.051h-4.224zm-3.262 10.976c.639-3.197 2.435-5.992 5.055-7.917h1.008l-1.5 2h2.697l-3.252 2.168 1.109 1.664 5.749-3.832h2.785c-1.766 1.376-3.204 3.102-4.251 5.061-2.153 1.265-4.6 1.939-7.099 1.939h-2.518zm.262 6.024c.867-1.214 1.954-2.213 3.225-2.988 1.632-.121 3.23-.498 4.744-1.103-.057.184-.127.362-.177.549l-1.123 4.114c-1.038.317-2.111.487-3.201.487h-4.224zm-.908 12.059h-1.571l.275-1.375c.617-3.086 2.354-5.778 4.89-7.625h.782c.877 0 1.745-.099 2.598-.273l-.19.698 2.513-.686-6.642 4.428 1.109 1.664 4.331-2.887c-.693 1.3-1.208 2.701-1.522 4.173-1.977 1.228-4.239 1.883-6.573 1.883zm8.209 6h4v8h-4zm34 8v-8h4v8z"/></g></g></svg>